<svg width="1671" height="286" viewBox="0 0 1671 286" fill="none" xmlns="http://www.w3.org/2000/svg">
<g clip-path="url(#clip0_6459_3)">
<mask id="mask0_6459_3" style="mask-type:luminance" maskUnits="userSpaceOnUse" x="0" y="1" width="283" height="284">
<path d="M282.755 1.27301H0V284.727H282.755V1.27301Z" fill="white"/>
</mask>
<g mask="url(#mask0_6459_3)">
<path d="M18.472 324.269C10.1547 336.076 3.35586 349.068 -3.1954 361.813C-13.3983 381.662 -23.6012 400.908 -33.8041 420.756C-35.6045 417.147 -37.405 414.14 -39.8057 410.531C-32.6037 397.299 -23.0009 381.059 -13.9984 366.624C-5.67625 352.725 1.06318 337.873 9.22739 324.269H18.472ZM133.34 324.269C150.51 331.23 168.183 337.241 185.857 341.965C168.453 353.994 150.447 366.023 130.642 373.24C110.837 380.458 88.0301 381.662 68.8248 372.639C49.8747 363.838 36.6198 344.694 33.7199 324.269H133.34ZM200.451 324.269C198.707 325.185 196.837 325.725 194.86 325.725C191.913 326.095 189.192 325.331 186.559 324.269H200.451ZM303.72 324.269H200.451C204.535 322.123 207.942 317.91 210.464 313.696C213.465 307.681 215.865 301.065 219.467 295.05C224.868 286.63 233.871 280.616 238.672 272.196C241.673 266.783 242.873 260.167 245.873 254.152C252.476 240.92 266.28 234.303 278.883 227.687C244.073 240.92 203.862 239.115 170.253 224.079C161.85 220.47 153.449 215.057 151.047 206.637C174.454 199.419 199.661 207.839 224.268 210.245C236.872 212.05 251.276 210.846 259.078 201.223C264.479 194.006 265.68 183.781 263.879 174.76C262.679 165.737 259.078 157.317 256.677 148.295C252.476 131.453 253.676 114.012 260.279 98.3737C251.876 100.78 242.873 101.381 234.471 99.5765C220.067 96.5692 203.862 88.1489 191.86 97.1708C186.457 101.381 184.057 107.997 181.657 114.011C176.254 127.845 170.853 142.28 165.451 156.113C163.051 161.526 159.45 167.541 154.049 166.94C148.047 166.338 147.446 157.317 148.647 151.302C154.049 128.447 167.253 107.396 185.257 92.3591C163.051 76.7213 128.842 83.3371 114.437 106.193C103.634 122.432 103.635 143.483 106.035 162.73C107.236 169.346 108.436 175.962 107.235 182.578C106.635 189.194 102.434 195.81 96.4323 198.215C84.4291 186.789 85.6294 167.541 87.4299 151.302C89.2305 131.453 92.2313 109.801 104.835 94.1634C88.6303 96.5692 73.626 101.381 59.222 109.2C54.4206 111.606 50.2195 114.012 47.2187 118.222C44.2178 122.432 43.0175 127.845 41.8172 132.657C37.0158 159.722 41.217 188.593 54.4207 212.651C57.4215 218.666 60.4223 227.687 54.4207 230.695C49.0192 233.1 43.6176 228.288 41.217 223.478C26.8129 197.013 40.6167 162.129 28.0133 134.461C19.611 144.686 11.8088 154.309 4.00661 164.534C-10.9976 183.179 -26.0017 202.426 -30.8031 225.883C-35.6044 248.739 -26.602 277.007 -4.99596 286.029C8.20771 291.442 23.8121 289.037 38.8163 290.841C25.9711 299.617 16.9602 311.384 9.22739 324.269H-35.45V-15.5948H303.72V324.269ZM34.015 305.877C32.9112 311.961 32.8543 318.172 33.7199 324.269H18.472C23.1078 317.687 28.2154 311.475 34.015 305.877ZM96.4323 302.269C98.833 296.254 107.235 296.856 113.237 298.66C136.643 304.674 159.45 312.493 181.657 322.117C183.279 322.814 184.902 323.601 186.559 324.269H133.34C124.273 320.592 115.347 316.65 106.635 312.493C102.434 310.088 97.0325 307.08 96.4323 302.269ZM135.443 257.76C136.643 257.159 137.843 256.557 139.044 257.159H138.444C154.049 262.572 169.053 268.587 184.057 275.203C176.254 275.203 169.053 274 161.85 272.196C156.449 270.391 151.047 268.587 146.246 266.181C141.445 264.376 136.643 262.572 135.443 257.76Z" fill="white"/>
</g>
<mask id="mask1_6459_3" style="mask-type:luminance" maskUnits="userSpaceOnUse" x="306" y="0" width="1374" height="286">
<path d="M1679.26 0H306.017V286H1679.26V0Z" fill="white"/>
</mask>
<g mask="url(#mask1_6459_3)">
<path d="M306.017 283.477V2.40915H494.353V54.206H366.123V117.246H470.31V166.633H366.123V231.681H498.761V283.477H306.017ZM608.44 285.886C543.124 285.886 503.454 245.332 503.454 180.285C503.454 116.443 545.128 74.6838 610.443 74.6838C666.544 74.6838 701.406 105.2 709.421 154.187H650.515C645.707 133.708 631.682 120.859 609.642 120.859C579.99 120.859 561.155 145.352 561.155 180.285C561.155 215.619 579.99 239.71 609.642 239.71C631.682 239.71 646.508 226.46 650.515 205.581H709.821C701.807 254.969 664.541 285.886 608.44 285.886ZM828.166 285.886C762.448 285.886 719.573 243.726 719.573 180.285C719.573 116.844 762.448 74.6838 828.166 74.6838C893.884 74.6838 936.76 116.844 936.76 180.285C936.76 244.127 893.884 285.886 828.166 285.886ZM828.166 239.71C859.823 239.71 879.458 215.218 879.458 180.285C879.458 145.352 859.823 120.859 828.166 120.859C796.51 120.859 777.276 145.352 777.276 180.285C777.276 215.218 796.51 239.71 828.166 239.71ZM1202.28 74.6838C1244.76 74.6838 1278.42 98.7755 1278.42 165.028V283.477H1221.91V168.239C1221.91 137.322 1210.69 121.261 1186.25 121.261C1161.81 121.261 1145.38 139.33 1145.38 170.648V283.477H1088.87V168.239C1088.87 137.322 1077.66 121.261 1052.81 121.261C1028.37 121.261 1012.34 140.133 1012.34 171.05V283.477H955.839V77.0931H1005.13L1010.34 102.791C1022.76 86.7296 1040.79 75.0854 1070.84 74.6838C1096.09 74.2823 1119.73 83.5174 1132.55 109.617C1146.98 87.5327 1171.02 74.6838 1202.28 74.6838ZM1306.28 283.477V2.40915H1366.39V283.477H1306.28ZM1651.53 231.681H1679.17V283.477H1650.32C1626.28 283.477 1616.26 276.651 1606.64 264.605C1585.41 278.258 1558.96 285.886 1529.7 285.886C1447.16 285.886 1390.66 224.854 1390.66 142.943C1390.66 61.032 1447.16 0 1529.7 0C1612.25 0 1668.76 61.032 1668.76 142.943C1668.76 176.27 1659.54 206.384 1642.71 230.074C1645.12 230.877 1647.92 231.681 1651.53 231.681ZM1451.97 142.943C1451.97 195.945 1482.42 234.892 1529.7 234.892C1546.13 234.892 1560.56 230.074 1572.58 221.642L1568.58 216.824C1562.56 208.793 1557.36 204.377 1548.54 204.377H1522.49V153.383H1552.94C1576.59 153.383 1584.61 161.815 1594.23 173.861L1600.63 181.892C1605.04 170.247 1607.04 156.997 1607.04 142.943C1607.04 89.9418 1576.59 50.9938 1529.7 50.9938C1482.42 50.9938 1451.97 89.9418 1451.97 142.943Z" fill="white"/>
</g>
</g>
<defs>
<clipPath id="clip0_6459_3">
<rect width="1671" height="286" fill="white"/>
</clipPath>
</defs>
</svg>
