<svg width="1671" height="284" viewBox="0 0 1671 284" fill="none" xmlns="http://www.w3.org/2000/svg">
<g clip-path="url(#clip0_6459_15)">
<mask id="mask0_6459_15" style="mask-type:luminance" maskUnits="userSpaceOnUse" x="0" y="1" width="283" height="282">
<path d="M282.755 1.26404H0V282.736H282.755V1.26404Z" fill="white"/>
</mask>
<g mask="url(#mask0_6459_15)">
<path d="M18.472 322.001C10.1547 333.726 3.35586 346.627 -3.1954 359.282C-13.3983 378.993 -23.6012 398.104 -33.8041 417.813C-35.6045 414.229 -37.405 411.244 -39.8057 407.66C-32.6037 394.52 -23.0009 378.394 -13.9984 364.061C-5.67625 350.258 1.06318 335.51 9.22739 322.001H18.472ZM133.34 322.001C150.51 328.914 168.183 334.883 185.857 339.573C168.453 351.518 150.447 363.463 130.642 370.63C110.837 377.797 88.0301 378.993 68.8248 370.033C49.8747 361.294 36.6198 342.283 33.7199 322.001H133.34ZM200.451 322.001C198.707 322.911 196.837 323.447 194.86 323.447C191.913 323.814 189.192 323.056 186.559 322.001H200.451ZM303.72 322.001H200.451C204.535 319.87 207.942 315.687 210.464 311.502C213.465 305.529 215.865 298.96 219.467 292.987C224.868 284.626 233.871 278.653 238.672 270.292C241.673 264.917 242.873 258.347 245.873 252.375C252.476 239.235 266.28 232.664 278.883 226.095C244.073 239.235 203.862 237.443 170.253 222.512C161.85 218.928 153.449 213.553 151.047 205.191C174.454 198.025 199.661 206.386 224.268 208.774C236.872 210.567 251.276 209.371 259.078 199.816C264.479 192.649 265.68 182.496 263.879 173.537C262.679 164.578 259.078 156.217 256.677 147.257C252.476 130.534 253.676 113.214 260.279 97.6857C251.876 100.075 242.873 100.672 234.471 98.8801C220.067 95.8938 203.862 87.5324 191.86 96.4912C186.457 100.672 184.057 107.242 181.657 113.214C176.254 126.951 170.853 141.285 165.451 155.021C163.051 160.397 159.45 166.369 154.049 165.772C148.047 165.175 147.446 156.217 148.647 150.244C154.049 127.548 167.253 106.645 185.257 91.7132C163.051 76.1847 128.842 82.7542 114.437 105.45C103.634 121.576 103.635 142.479 106.035 161.592C107.236 168.162 108.436 174.732 107.235 181.301C106.635 187.871 102.434 194.441 96.4323 196.829C84.4291 185.482 85.6294 166.369 87.4299 150.244C89.2305 130.534 92.2313 109.033 104.835 93.5048C88.6303 95.8938 73.626 100.672 59.222 108.436C54.4206 110.825 50.2195 113.214 47.2187 117.395C44.2178 121.576 43.0175 126.951 41.8172 131.729C37.0158 158.605 41.217 187.274 54.4207 211.164C57.4215 217.137 60.4223 226.095 54.4207 229.082C49.0192 231.47 43.6176 226.692 41.217 221.915C26.8129 195.635 40.6167 160.995 28.0133 133.521C19.611 143.675 11.8088 153.23 4.00661 163.384C-10.9976 181.898 -26.0017 201.01 -30.8031 224.303C-35.6044 246.999 -26.602 275.069 -4.99596 284.029C8.20771 289.404 23.8121 287.016 38.8163 288.807C25.9711 297.522 16.9602 309.206 9.22739 322.001H-35.45V-15.4858H303.72V322.001ZM34.015 303.738C32.9112 309.779 32.8543 315.947 33.7199 322.001H18.472C23.1078 315.465 28.2154 309.296 34.015 303.738ZM96.4323 300.155C98.833 294.183 107.235 294.78 113.237 296.571C136.643 302.544 159.45 310.308 181.657 319.864C183.279 320.556 184.902 321.338 186.559 322.001H133.34C124.273 318.35 115.347 314.436 106.635 310.308C102.434 307.919 97.0325 304.932 96.4323 300.155ZM135.443 255.958C136.643 255.36 137.843 254.763 139.044 255.36H138.444C154.049 260.736 169.053 266.708 184.057 273.278C176.254 273.278 169.053 272.084 161.85 270.292C156.449 268.5 151.047 266.708 146.246 264.32C141.445 262.527 136.643 260.736 135.443 255.958Z" fill="#06284C"/>
</g>
<mask id="mask1_6459_15" style="mask-type:luminance" maskUnits="userSpaceOnUse" x="306" y="0" width="1374" height="284">
<path d="M1679.26 0H306.017V284H1679.26V0Z" fill="white"/>
</mask>
<g mask="url(#mask1_6459_15)">
<path d="M306.017 281.495V2.39231H494.353V53.827H366.123V116.426H470.31V165.468H366.123V230.06H498.761V281.495H306.017ZM608.44 283.887C543.124 283.887 503.454 243.616 503.454 179.025C503.454 115.628 545.128 74.1616 610.443 74.1616C666.544 74.1616 701.406 104.464 709.421 153.108H650.515C645.707 132.773 631.682 120.014 609.642 120.014C579.99 120.014 561.155 144.336 561.155 179.025C561.155 214.111 579.99 238.034 609.642 238.034C631.682 238.034 646.508 224.876 650.515 204.143H709.821C701.807 253.186 664.541 283.887 608.44 283.887ZM828.166 283.887C762.448 283.887 719.573 242.021 719.573 179.025C719.573 116.027 762.448 74.1616 828.166 74.1616C893.884 74.1616 936.76 116.027 936.76 179.025C936.76 242.42 893.884 283.887 828.166 283.887ZM828.166 238.034C859.823 238.034 879.458 213.713 879.458 179.025C879.458 144.336 859.823 120.014 828.166 120.014C796.51 120.014 777.276 144.336 777.276 179.025C777.276 213.713 796.51 238.034 828.166 238.034ZM1202.28 74.1616C1244.76 74.1616 1278.42 98.0847 1278.42 163.874V281.495H1221.91V167.063C1221.91 136.362 1210.69 120.413 1186.25 120.413C1161.81 120.413 1145.38 138.356 1145.38 169.455V281.495H1088.87V167.063C1088.87 136.362 1077.66 120.413 1052.81 120.413C1028.37 120.413 1012.34 139.153 1012.34 169.853V281.495H955.839V76.5539H1005.13L1010.34 102.072C1022.76 86.1231 1040.79 74.5603 1070.84 74.1616C1096.09 73.7628 1119.73 82.9334 1132.55 108.85C1146.98 86.9206 1171.02 74.1616 1202.28 74.1616ZM1306.28 281.495V2.39231H1366.39V281.495H1306.28ZM1651.53 230.06H1679.17V281.495H1650.32C1626.28 281.495 1616.26 274.717 1606.64 262.755C1585.41 276.312 1558.96 283.887 1529.7 283.887C1447.16 283.887 1390.66 223.281 1390.66 141.943C1390.66 60.6052 1447.16 0 1529.7 0C1612.25 0 1668.76 60.6052 1668.76 141.943C1668.76 175.037 1659.54 204.941 1642.71 228.465C1645.12 229.262 1647.92 230.06 1651.53 230.06ZM1451.97 141.943C1451.97 194.574 1482.42 233.25 1529.7 233.25C1546.13 233.25 1560.56 228.465 1572.58 220.092L1568.58 215.308C1562.56 207.333 1557.36 202.947 1548.54 202.947H1522.49V152.31H1552.94C1576.59 152.31 1584.61 160.683 1594.23 172.645L1600.63 180.62C1605.04 169.056 1607.04 155.899 1607.04 141.943C1607.04 89.3129 1576.59 50.6372 1529.7 50.6372C1482.42 50.6372 1451.97 89.3129 1451.97 141.943Z" fill="#06284C"/>
</g>
</g>
<defs>
<clipPath id="clip0_6459_15">
<rect width="1671" height="284" fill="white"/>
</clipPath>
</defs>
</svg>
