<svg width="283" height="283" viewBox="0 0 283 283" fill="none" xmlns="http://www.w3.org/2000/svg">
<mask id="mask0_6459_45" style="mask-type:luminance" maskUnits="userSpaceOnUse" x="0" y="0" width="283" height="283">
<path d="M282.755 0H0V282.233H282.755V0Z" fill="white"/>
</mask>
<g mask="url(#mask0_6459_45)">
<path d="M18.4705 321.605C10.1533 333.362 3.35439 346.298 -3.19687 358.987C-13.3997 378.751 -23.6026 397.914 -33.8055 417.677C-35.606 414.083 -37.4064 411.089 -39.8071 407.496C-32.6052 394.321 -23.0024 378.151 -13.9999 363.778C-5.67772 349.938 1.06172 335.151 9.22593 321.605H18.4705ZM133.339 321.605C150.509 328.537 168.182 334.522 185.856 339.225C168.451 351.202 150.446 363.18 130.641 370.366C110.835 377.552 88.0287 378.751 68.8233 369.767C49.8732 361.004 36.6183 341.942 33.7184 321.605H133.339ZM200.45 321.605C198.705 322.518 196.836 323.055 194.859 323.055C191.911 323.423 189.19 322.663 186.558 321.605H200.45ZM303.719 321.605H200.45C204.533 319.468 207.94 315.274 210.463 311.078C213.463 305.089 215.864 298.501 219.466 292.513C224.867 284.129 233.87 278.14 238.671 269.757C241.671 264.367 242.871 257.779 245.872 251.79C252.474 238.616 266.278 232.027 278.882 225.439C244.072 238.616 203.86 236.818 170.252 221.847C161.849 218.253 153.447 212.863 151.046 204.48C174.453 197.293 199.66 205.677 224.267 208.072C236.87 209.869 251.274 208.671 259.077 199.09C264.478 191.903 265.678 181.722 263.878 172.74C262.678 163.756 259.077 155.372 256.675 146.389C252.474 129.62 253.675 112.253 260.277 96.6829C251.874 99.0783 242.871 99.6771 234.47 97.8805C220.066 94.8861 203.86 86.5021 191.858 95.4851C186.456 99.6772 184.056 106.265 181.655 112.253C176.253 126.028 170.852 140.4 165.45 154.174C163.049 159.564 159.448 165.552 154.047 164.954C148.045 164.355 147.445 155.372 148.645 149.384C154.047 126.626 167.251 105.666 185.256 90.6941C163.049 75.1236 128.84 81.711 114.436 104.468C103.633 120.638 103.633 141.597 106.034 160.762C107.234 167.35 108.434 173.937 107.234 180.525C106.634 187.112 102.433 193.7 96.4308 196.095C84.4276 184.717 85.628 165.552 87.4284 149.384C89.229 129.62 92.2298 108.061 104.833 92.4906C88.6289 94.8861 73.6245 99.6772 59.2206 107.462C54.4192 109.858 50.218 112.253 47.2172 116.445C44.2163 120.638 43.0161 126.028 41.8157 130.819C37.0143 157.767 41.2155 186.513 54.4192 210.468C57.42 216.457 60.4208 225.439 54.4192 228.434C49.0177 230.829 43.6162 226.038 41.2155 221.248C26.8115 194.897 40.6153 160.164 28.0118 132.615C19.6095 142.796 11.8073 152.377 4.00514 162.559C-10.999 181.123 -26.0032 200.287 -30.8046 223.643C-35.6059 246.4 -26.6034 274.547 -4.99742 283.53C8.20625 288.92 23.8106 286.525 38.8148 288.321C25.9696 297.06 16.9587 308.775 9.22593 321.605H-35.4515V-16.7949H303.719V321.605ZM34.0135 303.293C32.9097 309.35 32.8529 315.534 33.7184 321.605H18.4705C23.1064 315.052 28.214 308.866 34.0135 303.293ZM96.4308 299.7C98.8315 293.711 107.234 294.31 113.236 296.106C136.642 302.095 159.449 309.88 181.655 319.462C183.278 320.157 184.9 320.94 186.558 321.605H133.339C124.272 317.944 115.345 314.019 106.634 309.88C102.433 307.485 97.0311 304.49 96.4308 299.7ZM135.442 255.383C136.642 254.784 137.842 254.185 139.042 254.784H138.442C154.047 260.174 169.052 266.163 184.056 272.75C176.253 272.75 169.052 271.553 161.849 269.757C156.448 267.959 151.046 266.163 146.245 263.768C141.444 261.97 136.642 260.174 135.442 255.383Z" fill="white"/>
</g>
</svg>
